# xmcd
#
# Track frame offsets:
#	150
#	63149
#	77891
#	102980
#	125959
#	146211
#	163132
#	207478
#	245166
#	308312
#	326714
#
# Disc length: 4788 seconds
#
# Revision: 1
# Processed by: cddbd v1.5.2PL0 Copyright (c) Steve Scherf et al.
# Submitted via: audiograbber 1.83.01
#
DISCID=a612b20b
DTITLE=Grateful Dead - 76-10-03 Cobo Arena, Detroit MI
DYEAR=1900
DGENRE=
TTITLE0=Playing In The Band
TTITLE1=Drums
TTITLE2=The Wheel
TTITLE3=Jam
TTITLE4=Good Lovin'
TTITLE5=Jam
TTITLE6=Comes A Time
TTITLE7=Dancing In The Streets
TTITLE8=Not Fade Away
TTITLE9=Dancing In The Streets
TTITLE10=Around and Around
EXTD=
EXTT0=
EXTT1=
EXTT2=
EXTT3=
EXTT4=
EXTT5=
EXTT6=
EXTT7=
EXTT8=
EXTT9=
EXTT10=
PLAYORDER=
